<?xml version="1.0"?>
<svg xmlns="http://www.w3.org/2000/svg" id="Layer_1" enable-background="new 0 0 512.033 512.033" height="512px" viewBox="0 0 512.033 512.033" width="512px"><g><g><path d="m165.842 209.357h180.35v93.319h-180.35z" transform="matrix(.707 -.707 .707 .707 -106.046 256.017)" data-original="#000000" class="active-path" data-old_color="#000000" fill="#FFFFFF"/><path d="m117.923 237.194h62.231v251.602h-62.231z" transform="matrix(.707 -.707 .707 .707 -213.024 211.705)" data-original="#000000" class="active-path" data-old_color="#000000" fill="#FFFFFF"/><path d="m331.879 23.237h62.231v251.602h-62.231z" transform="matrix(.707 -.707 .707 .707 .933 300.329)" data-original="#000000" class="active-path" data-old_color="#000000" fill="#FFFFFF"/><path d="m69.815 326.984h42.186v188.283h-42.186z" transform="matrix(.707 -.707 .707 .707 -271.154 187.627)" data-original="#000000" class="active-path" data-old_color="#000000" fill="#FFFFFF"/><path d="m400.032-3.233h42.186v188.283h-42.186z" transform="matrix(.707 -.707 .707 .707 59.065 324.41)" data-original="#000000" class="active-path" data-old_color="#000000" fill="#FFFFFF"/><path d="m452.74-2.773h30.812v93.319h-30.812z" transform="matrix(.707 -.707 .707 .707 106.084 343.884)" data-original="#000000" class="active-path" data-old_color="#000000" fill="#FFFFFF"/><path d="m28.481 421.487h30.812v93.319h-30.812z" transform="matrix(.707 -.707 .707 .707 -318.175 168.15)" data-original="#000000" class="active-path" data-old_color="#000000" fill="#FFFFFF"/></g></g> </svg>
